<svg xmlns:svg="http://www.w3.org/2000/svg" xmlns="http://www.w3.org/2000/svg" version="1.0" width="350" height="250"><rect id="backgroundrect" width="100%" height="100%" x="0" y="0" fill="none" stroke="none"/>
  <defs id="defs4"/>
  
<g class="currentLayer" style=""><title>Layer 1</title><g id="layer1" class="">
    <path d="M47.63281196001302,77.1207018300029 C47.63281196001302,68.77073302935281 54.46919265604286,61.99546530672576 62.910820238584655,61.99546530672576 L287.0539893776992,61.99546530672576 C295.4885773244396,61.99546530672576 302.33200053193906,68.77073302935281 302.33200053193906,77.1207018300029 L302.33200053193906,172.79641026166476 C302.33200053193906,181.1463677786647 295.4885773244396,187.91473272832266 287.0539893776992,187.91473272832266 L62.910820238584655,187.91473272832266 C54.46919265604286,187.91473272832266 47.63281196001302,181.1463677786647 47.63281196001302,172.79641026166476 L47.63281196001302,77.1207018300029 " id="path8304" style="fill:#ffffff;fill-opacity:1;fill-rule:nonzero;stroke:none"/>
    <path d="M47.808825860395174,75.59436529736432 C47.808825860395174,67.91433219334968 54.103082708007456,61.68468537292538 61.86177934776144,61.68468537292538 L288.321290610718,61.68468537292538 C296.0799843748038,61.68468537292538 302.3672015866146,67.91433219334968 302.3672015866146,75.59436529736432 L302.3672015866146,76.03638254495431 L47.808825860395174,76.03638254495431 L47.808825860395174,75.59436529736432 " id="path8308" style="fill:#fbb110;fill-opacity:1;fill-rule:nonzero;stroke:none"/>
    <path d="M302.3672015866146,174.06030037584955 L302.3672015866146,174.4056252045335 C302.3672015866146,182.08564984581056 296.0799843748038,188.31531077079754 288.321290610718,188.31531077079754 L61.86177934776144,188.31531077079754 C54.103082708007456,188.31531077079754 47.808825860395174,182.08564984581056 47.808825860395174,174.4056252045335 L47.808825860395174,174.06030037584955 L302.3672015866146,174.06030037584955 " id="path8312" style="fill:#fbb110;fill-opacity:1;fill-rule:nonzero;stroke:none"/>
    <path d="M223.98468100100283,124.85150664656159 C223.98468100100283,144.2932950656505 239.9033795318853,160.05392239067947 259.54653484046884,160.05392239067947 C279.182647062449,160.05392239067947 295.1083881048012,144.2932950656505 295.1083881048012,124.85150664656159 C295.1083881048012,105.40280981267848 279.182647062449,89.64218248764946 259.54653484046884,89.64218248764946 C239.9033795318853,89.64218248764946 223.98468100100283,105.40280981267848 223.98468100100283,124.85150664656159 zM54.43398872569917,124.85150664656159 C54.43398872569917,144.2932950656505 70.35972976805131,160.05392239067947 90.00288450150119,160.05392239067947 C109.63899672348144,160.05392239067947 125.56473776583358,144.2932950656505 125.56473776583358,124.85150664656159 C125.56473776583358,105.40280981267848 109.63899672348144,89.64218248764946 90.00288450150119,89.64218248764946 C70.35972976805131,89.64218248764946 54.43398872569917,105.40280981267848 54.43398872569917,124.85150664656159 zM302.3672015866146,167.39553061806683 L127.02213217083742,167.39553061806683 C130.18334274191466,165.19926403061788 133.1262958464646,162.19493858525001 136.33678961948848,158.14082464515442 L154.19868069037605,135.57729593832158 L161.99961802060702,145.33617796649654 L170.6806248527487,133.90592500869275 L163.0909053532436,124.34042499741733 L181.26962317022003,101.36941547514041 C187.04287795248726,94.08306046154408 176.0032854303584,85.51900132508706 170.23003064809114,92.80535633868344 L154.16347963570055,113.11045965039473 L137.82938795483605,92.53600432634796 C132.04909066109911,85.27036891530913 121.03061704637459,93.85514483341116 126.81091434011154,101.12768583833164 L145.27125497283302,124.34733059129901 L125.29719422169138,149.57676550869743 C118.20031249298908,158.5413998667168 111.11751291155784,166.76013135357732 97.05752266405838,167.39553061806683 L47.808825860395174,167.39553061806683 L47.808825860395174,82.70115230273703 L222.23158163298277,82.70115230273703 C219.23230569068474,84.86979087283423 216.4020011372992,87.77742672020862 213.33232020998193,91.65887824596221 L195.47746589922758,114.21549853800087 L187.6694889331952,104.4635249246201 L178.99552173685498,115.89377788242389 L186.58524411202825,125.45237229981767 L168.3994837835822,148.42338182209457 C162.6332686371164,155.7097368356909 173.67286115924526,164.2737931512354 179.4390791813793,156.987438137639 L195.51266982957137,136.6892432407219 L211.84676151043584,157.256792970887 C217.62705880417278,164.52933397580753 228.6455295432291,155.94455805770548 222.86523224949215,148.6720142318725 L204.4048916167707,125.44546388502349 L224.37895236791226,100.22293456150668 C230.89850919352156,91.97657787820695 237.41102350766113,84.36561763848417 249.33772775560362,82.70115230273703 L302.3672015866146,82.70115230273703 L302.3672015866146,167.39553061806683 zM238.25588907922818,124.85150664656159 C238.25588907922818,113.20715206930078 247.78880370683973,103.77287526725222 259.54653484046884,103.77287526725222 C271.30426511139746,103.77287526725222 280.8301375151061,113.20715206930078 280.8301375151061,124.85150664656159 C280.8301375151061,136.4889528090282 271.30426511139746,145.92322961107672 259.54653484046884,145.92322961107672 C247.78880370683973,145.92322961107672 238.25588907922818,136.4889528090282 238.25588907922818,124.85150664656159 zM68.71223931539419,124.85150664656159 C68.71223931539419,113.20715206930078 78.24515423057261,103.77287526725222 90.00288450150119,103.77287526725222 C101.75357226096014,103.77287526725222 111.28648717613856,113.20715206930078 111.28648717613856,124.85150664656159 C111.28648717613856,136.4889528090282 101.75357226096014,145.92322961107672 90.00288450150119,145.92322961107672 C78.24515423057261,145.92322961107672 68.71223931539419,136.4889528090282 68.71223931539419,124.85150664656159 " id="path8316" style="fill:#e70020;fill-opacity:1;fill-rule:nonzero;stroke:none"/>
  </g></g></svg>