<svg width="38" height="40" viewBox="0 0 38 40" fill="none" xmlns="http://www.w3.org/2000/svg">
<g filter="url(#filter0_d)">
<path d="M25 2H7C6.46975 2.00055 5.96139 2.19523 5.58644 2.54133C5.2115 2.88743 5.0006 3.35669 5 3.84615V24.1538C5.0006 24.6433 5.2115 25.1126 5.58644 25.4587C5.96139 25.8048 6.46975 25.9995 7 26H25C25.5303 25.9995 26.0386 25.8048 26.4136 25.4587C26.7885 25.1126 26.9994 24.6433 27 24.1538V3.84615C26.9994 3.35669 26.7885 2.88743 26.4136 2.54133C26.0386 2.19523 25.5303 2.00055 25 2ZM11 22.3068C10.7033 22.3068 10.4133 22.2256 10.1666 22.0734C9.91997 21.9213 9.72771 21.705 9.61418 21.452C9.50065 21.199 9.47094 20.9206 9.52882 20.652C9.5867 20.3834 9.72956 20.1367 9.93934 19.9431C10.1491 19.7494 10.4164 19.6176 10.7074 19.5641C10.9983 19.5107 11.2999 19.5381 11.574 19.6429C11.8481 19.7477 12.0824 19.9252 12.2472 20.1529C12.412 20.3806 12.5 20.6483 12.5 20.9222C12.4995 21.2892 12.3414 21.6412 12.0601 21.9008C11.7789 22.1603 11.3977 22.3063 11 22.3068ZM11 17.6914C10.7033 17.6914 10.4133 17.6102 10.1666 17.458C9.91997 17.3059 9.72771 17.0896 9.61418 16.8366C9.50065 16.5836 9.47094 16.3052 9.52882 16.0366C9.5867 15.7681 9.72956 15.5213 9.93934 15.3277C10.1491 15.1341 10.4164 15.0022 10.7074 14.9488C10.9983 14.8953 11.2999 14.9228 11.574 15.0276C11.8481 15.1324 12.0824 15.3098 12.2472 15.5375C12.412 15.7652 12.5 16.0329 12.5 16.3068C12.4995 16.6739 12.3414 17.0258 12.0601 17.2854C11.7789 17.5449 11.3977 17.691 11 17.6914ZM16 22.3068C15.7033 22.3068 15.4133 22.2256 15.1666 22.0734C14.92 21.9213 14.7277 21.705 14.6142 21.452C14.5006 21.199 14.4709 20.9206 14.5288 20.652C14.5867 20.3834 14.7296 20.1367 14.9393 19.9431C15.1491 19.7494 15.4164 19.6176 15.7074 19.5641C15.9983 19.5107 16.2999 19.5381 16.574 19.6429C16.8481 19.7477 17.0824 19.9252 17.2472 20.1529C17.412 20.3806 17.5 20.6483 17.5 20.9222C17.4995 21.2892 17.3414 21.6412 17.0601 21.9008C16.7789 22.1603 16.3977 22.3063 16 22.3068ZM16 17.6914C15.7033 17.6914 15.4133 17.6102 15.1666 17.458C14.92 17.3059 14.7277 17.0896 14.6142 16.8366C14.5006 16.5836 14.4709 16.3052 14.5288 16.0366C14.5867 15.7681 14.7296 15.5213 14.9393 15.3277C15.1491 15.1341 15.4164 15.0022 15.7074 14.9488C15.9983 14.8953 16.2999 14.9228 16.574 15.0276C16.8481 15.1324 17.0824 15.3098 17.2472 15.5375C17.412 15.7652 17.5 16.0329 17.5 16.3068C17.4995 16.6739 17.3414 17.0258 17.0601 17.2854C16.7789 17.5449 16.3977 17.691 16 17.6914ZM21 22.3068C20.7033 22.3068 20.4133 22.2256 20.1666 22.0734C19.92 21.9213 19.7277 21.705 19.6142 21.452C19.5007 21.199 19.4709 20.9206 19.5288 20.652C19.5867 20.3834 19.7296 20.1367 19.9393 19.9431C20.1491 19.7494 20.4164 19.6176 20.7074 19.5641C20.9983 19.5107 21.2999 19.5381 21.574 19.6429C21.8481 19.7477 22.0824 19.9252 22.2472 20.1529C22.412 20.3806 22.5 20.6483 22.5 20.9222C22.4995 21.2892 22.3414 21.6412 22.0601 21.9008C21.7789 22.1603 21.3977 22.3063 21 22.3068ZM21 17.6914C20.7033 17.6914 20.4133 17.6102 20.1666 17.458C19.92 17.3059 19.7277 17.0896 19.6142 16.8366C19.5007 16.5836 19.4709 16.3052 19.5288 16.0366C19.5867 15.7681 19.7296 15.5213 19.9393 15.3277C20.1491 15.1341 20.4164 15.0022 20.7074 14.9488C20.9983 14.8953 21.2999 14.9228 21.574 15.0276C21.8481 15.1324 22.0824 15.3098 22.2472 15.5375C22.412 15.7652 22.5 16.0329 22.5 16.3068C22.4995 16.6739 22.3414 17.0258 22.0601 17.2854C21.7789 17.5449 21.3977 17.691 21 17.6914ZM23 11.2298C23 11.4747 22.8946 11.7094 22.7071 11.8826C22.5196 12.0557 22.2652 12.1529 22 12.1529H10C9.73478 12.1529 9.48043 12.0557 9.29289 11.8826C9.10536 11.7094 9 11.4747 9 11.2298V6.61446C9 6.36965 9.10536 6.13486 9.29289 5.96175C9.48043 5.78864 9.73478 5.69138 10 5.69138H22C22.2652 5.69138 22.5196 5.78864 22.7071 5.96175C22.8946 6.13486 23 6.36965 23 6.61446V11.2298Z" fill="#3D96FF"/>
</g>
<defs>
<filter id="filter0_d" x="0" y="0" width="38" height="40" filterUnits="userSpaceOnUse" color-interpolation-filters="sRGB">
<feFlood flood-opacity="0" result="BackgroundImageFix"/>
<feColorMatrix in="SourceAlpha" type="matrix" values="0 0 0 0 0 0 0 0 0 0 0 0 0 0 0 0 0 0 127 0"/>
<feOffset dx="3" dy="6"/>
<feGaussianBlur stdDeviation="4"/>
<feColorMatrix type="matrix" values="0 0 0 0 0.240568 0 0 0 0 0.589907 0 0 0 0 1 0 0 0 0.1 0"/>
<feBlend mode="normal" in2="BackgroundImageFix" result="effect1_dropShadow"/>
<feBlend mode="normal" in="SourceGraphic" in2="effect1_dropShadow" result="shape"/>
</filter>
</defs>
</svg>
